<svg width="17" height="13" viewBox="0 0 17 13" fill="none" xmlns="http://www.w3.org/2000/svg">
<path d="M15.7786 0.571889C15.6886 0.301139 15.4681 0.0963893 15.1906 0.0251393C14.7758 -0.0783608 13.8226 -0.329611 2.53206 10.0886C0.862558 6.46914 1.65906 2.96064 2.06781 1.64739C2.57181 1.77339 3.42531 2.08839 4.48956 2.82639L2.53656 4.77939C2.24331 5.07264 2.24331 5.54664 2.53656 5.83989C2.68356 5.98539 2.87556 6.05889 3.06756 6.05889C3.25956 6.05889 3.45156 5.98539 3.59781 5.83914L5.67381 3.76314C5.87406 3.94239 6.07806 4.12989 6.28731 4.33914C6.58056 4.63239 7.05456 4.63239 7.34781 4.33914C7.64106 4.04589 7.64106 3.57189 7.34781 3.27864C4.16481 0.0956394 1.67256 0.0588893 1.56756 0.0588893C1.26756 0.0588893 0.996059 0.237389 0.878309 0.513389C0.780059 0.742139 -1.48269 6.16989 1.66656 11.6809C1.77981 11.8796 1.97781 12.0154 2.20431 12.0499C2.24181 12.0559 2.27931 12.0589 2.31756 12.0589C2.50506 12.0589 2.68731 11.9884 2.82756 11.8586C7.50756 7.52139 12.7921 2.91114 14.5748 1.74939C15.8806 6.28989 14.6851 9.21639 14.0581 10.3331C13.5256 9.97239 12.4193 9.09939 10.3486 7.02864C10.0553 6.73539 9.58131 6.73539 9.28806 7.02864C8.99481 7.32189 8.99481 7.79589 9.28806 8.08914C11.9213 10.7231 13.6141 12.0589 14.3176 12.0589C14.5456 12.0589 14.7608 11.9554 14.9033 11.7776C15.0361 11.6111 18.1313 7.62789 15.7786 0.571889Z" fill="white"/>
</svg>
