<svg width="13" height="9" viewBox="0 0 13 9" fill="none" xmlns="http://www.w3.org/2000/svg">
<path d="M4.55 5.625C3.029 5.625 0 6.37714 0 7.875V9H9.1V7.875C9.1 6.37714 6.071 5.625 4.55 5.625ZM1.521 7.71429C2.067 7.34143 3.3865 6.91071 4.55 6.91071C5.7135 6.91071 7.033 7.34143 7.579 7.71429H1.521ZM4.55 4.5C5.8045 4.5 6.825 3.49071 6.825 2.25C6.825 1.00929 5.8045 0 4.55 0C3.2955 0 2.275 1.00929 2.275 2.25C2.275 3.49071 3.2955 4.5 4.55 4.5ZM4.55 1.28571C5.0895 1.28571 5.525 1.71643 5.525 2.25C5.525 2.78357 5.0895 3.21429 4.55 3.21429C4.0105 3.21429 3.575 2.78357 3.575 2.25C3.575 1.71643 4.0105 1.28571 4.55 1.28571ZM9.126 5.66357C9.88 6.20357 10.4 6.92357 10.4 7.875V9H13V7.875C13 6.57643 10.725 5.83714 9.126 5.66357ZM8.45 4.5C9.7045 4.5 10.725 3.49071 10.725 2.25C10.725 1.00929 9.7045 0 8.45 0C8.099 0 7.774 0.0835714 7.475 0.225C7.8845 0.797143 8.125 1.49786 8.125 2.25C8.125 3.00214 7.8845 3.70286 7.475 4.275C7.774 4.41643 8.099 4.5 8.45 4.5Z" fill="white"/>
</svg>
